HIERARCHY
ROOT Hips
{
	OFFSET 0.000000 0.000000 0.000000
	CHANNELS 6 Xposition Yposition Zposition Zrotation Yrotation Xrotation 
	JOINT LHipJoint
	{
		OFFSET 0.000000 0.000000 0.000000
		CHANNELS 3 Zrotation Yrotation Xrotation
		JOINT LeftUpLeg
		{
			OFFSET 1.363060 -1.794630 0.839290
			CHANNELS 3 Zrotation Yrotation Xrotation
			JOINT LeftLeg
			{
				OFFSET 2.448110 -6.726130 0.000000
				CHANNELS 3 Zrotation Yrotation Xrotation
				JOINT LeftFoot
				{
					OFFSET 2.562200 -7.039590 0.000000
					CHANNELS 3 Zrotation Yrotation Xrotation
					JOINT LeftToeBase
					{
						OFFSET 0.157640 -0.433110 2.322550
						CHANNELS 3 Zrotation Yrotation Xrotation
						End Site
						{
							OFFSET 0.000000 0.000000 0.000000
						}
					}
				}
			}
		}
	}
	JOINT RHipJoint
	{
		OFFSET 0.000000 0.000000 0.000000
		CHANNELS 3 Zrotation Yrotation Xrotation
		JOINT RightUpLeg
		{
			OFFSET -1.305520 -1.794630 0.839290
			CHANNELS 3 Zrotation Yrotation Xrotation
			JOINT RightLeg
			{
				OFFSET -2.542530 -6.985550 0.000000
				CHANNELS 3 Zrotation Yrotation Xrotation
				JOINT RightFoot
				{
					OFFSET -2.568260 -7.056230 0.000000
					CHANNELS 3 Zrotation Yrotation Xrotation
					JOINT RightToeBase
					{
						OFFSET -0.164730 -0.452590 2.363150
						CHANNELS 3 Zrotation Yrotation Xrotation
						End Site
						{
							OFFSET 0.000000 0.000000 0.000000
						}
					}
				}
			}
		}
	}
	JOINT LowerBack
	{
		OFFSET 0.000000 0.000000 0.000000
		CHANNELS 3 Zrotation Yrotation Xrotation
		JOINT Spine
		{
			OFFSET 0.028270 2.035590 -0.193380
			CHANNELS 3 Zrotation Yrotation Xrotation
			JOINT Spine1
			{
				OFFSET 0.056720 2.048850 -0.042750
				CHANNELS 3 Zrotation Yrotation Xrotation
				JOINT Neck
				{
					OFFSET 0.000000 0.000000 0.000000
					CHANNELS 3 Zrotation Yrotation Xrotation
					JOINT Neck1
					{
						OFFSET -0.054170 1.746240 0.172020
						CHANNELS 3 Zrotation Yrotation Xrotation
						JOINT Head
						{
							OFFSET 0.104070 1.761360 -0.123970
							CHANNELS 3 Zrotation Yrotation Xrotation
							End Site
							{
								OFFSET 0.000000 0.000000 0.000000
							}
						}
					}
				}
				JOINT LeftShoulder
				{
					OFFSET 0.000000 0.000000 0.000000
					CHANNELS 3 Zrotation Yrotation Xrotation
					JOINT LeftArm
					{
						OFFSET 3.362410 1.200890 -0.311210
						CHANNELS 3 Zrotation Yrotation Xrotation
						JOINT LeftForeArm
						{
							OFFSET 4.983000 -0.000000 -0.000000
							CHANNELS 3 Zrotation Yrotation Xrotation
							JOINT LeftHand
							{
								OFFSET 3.483560 -0.000000 -0.000000
								CHANNELS 3 Zrotation Yrotation Xrotation
								JOINT LeftFingerBase
								{
									OFFSET 0.000000 0.000000 0.000000
									CHANNELS 3 Zrotation Yrotation Xrotation
									JOINT LeftHandIndex1
									{
										OFFSET 0.715260 -0.000000 -0.000000
										CHANNELS 3 Zrotation Yrotation Xrotation
										End Site
										{
											OFFSET 0.000000 0.000000 0.000000
										}
									}
								}
								JOINT LThumb
								{
									OFFSET 0.000000 0.000000 0.000000
									CHANNELS 3 Zrotation Yrotation Xrotation
									End Site
									{
										OFFSET 0.000000 0.000000 0.000000
									}
								}
							}
						}
					}
				}
				JOINT RightShoulder
				{
					OFFSET 0.000000 0.000000 0.000000
					CHANNELS 3 Zrotation Yrotation Xrotation
					JOINT RightArm
					{
						OFFSET -3.136600 1.374050 -0.404650
						CHANNELS 3 Zrotation Yrotation Xrotation
						JOINT RightForeArm
						{
							OFFSET -5.241900 -0.000000 -0.000000
							CHANNELS 3 Zrotation Yrotation Xrotation
							JOINT RightHand
							{
								OFFSET -3.444170 -0.000000 -0.000000
								CHANNELS 3 Zrotation Yrotation Xrotation
								JOINT RightFingerBase
								{
									OFFSET 0.000000 0.000000 0.000000
									CHANNELS 3 Zrotation Yrotation Xrotation
									JOINT RightHandIndex1
									{
										OFFSET -0.622530 -0.000000 -0.000000
										CHANNELS 3 Zrotation Yrotation Xrotation
										End Site
										{
											OFFSET 0.000000 0.000000 0.000000
										}
									}
								}
								JOINT RThumb
								{
									OFFSET 0.000000 0.000000 0.000000
									CHANNELS 3 Zrotation Yrotation Xrotation
									End Site
									{
										OFFSET 0.000000 0.000000 0.000000
									}
								}
							}
						}
					}
				}
			}
		}
	}
}
MOTION
Frames: 7
Frame Time: 0.008333
0.728517 18.181517 6.086017 0.207047 -5.141288 6.160160 -2.950939 4.621778 6.308858 -14.968674 -0.934367 -8.908151 13.912781 16.576126 73.981536 2.833549 -8.720927 36.882905 0.132200 -2.343300 -6.455400 4.743729 -1.599852 1.100608 18.699200 13.105183 -31.049295 -1.739921 -10.639037 34.424633 -2.151838 1.308685 19.631751 -0.578400 -4.870200 13.538700 -0.752038 -1.705253 13.304920 2.468428 -1.788360 -1.377438 2.802952 -1.442536 -9.647338 -5.508818 -4.186660 -16.697378 5.733246 -4.546494 9.363285 0.320800 -1.937600 8.028500 -4.527626 1.527433 -0.768105 -85.578805 12.655676 41.503868 123.766062 -56.188836 -90.915962 -0.095083 -0.666361 -43.435086 16.310593 -0.129233 0.092500 -7.125000 0.000000 0.000000 -7.675900 30.251800 2.785800 8.673538 -1.470988 -3.683991 73.137433 -28.277452 45.109878 -116.292070 60.274594 -84.263932 0.772940 -0.848319 -12.435100 -41.257801 40.030366 -30.384100 7.125000 0.000000 0.000000 -2.678600 19.290000 -3.416100 
0.724981 18.083875 6.588887 0.257772 -4.848865 6.151948 -2.641500 4.456644 5.893583 -14.498358 -1.165115 -11.511147 15.536424 17.080755 78.420985 2.463023 -6.722916 34.710815 0.103400 -2.073300 -5.708200 4.520834 -1.744833 1.333548 19.381122 13.402474 -30.564555 -2.525461 -11.265619 36.776481 -1.559697 0.218675 16.168413 -0.590900 -4.921500 13.684800 -0.722624 -1.558292 13.383531 2.453426 -1.617126 -1.402673 2.752013 -1.327025 -9.693738 -5.347990 -4.308038 -16.875254 5.507888 -4.720100 9.343287 0.178800 -2.033800 8.043200 -4.522496 1.551082 -0.809443 -85.734704 13.410192 41.992869 123.587055 -56.220903 -90.685620 -0.008291 -0.801723 -44.718203 17.632719 5.468439 1.982100 -7.125000 0.000000 0.000000 -7.162400 36.256600 1.549500 8.697345 -1.448169 -3.597303 73.609274 -26.663210 45.071789 -115.370164 60.411733 -83.569994 0.816480 -0.837300 -12.835995 -41.118597 39.836006 -30.186000 7.125000 0.000000 0.000000 -2.704700 19.028600 -3.441800 
0.720718 17.958782 7.067216 -0.259302 -4.812413 6.143808 -2.334937 4.342892 5.541631 -13.329966 -1.078168 -14.097990 17.047248 17.554026 82.569498 2.957033 -6.679797 39.603364 1.756000 8.338300 23.746300 4.377970 -1.923929 1.556509 20.722820 14.078481 -29.649251 -3.316824 -11.743646 38.867451 -0.482574 -2.122824 12.400865 -0.461900 -4.359400 12.090200 -0.226865 -1.351848 13.606976 2.517160 -1.267158 -1.374344 2.568683 -1.145454 -9.723086 -5.084753 -4.442615 -17.327838 5.308030 -4.911447 9.464914 0.029900 -2.122300 8.166200 -4.525099 1.579143 -0.852723 -85.766570 13.913230 42.479101 122.488124 -56.594044 -89.834060 -0.014703 -0.823167 -45.094875 18.296602 5.406657 2.044200 -7.125000 0.000000 0.000000 -6.582200 36.237900 1.425700 8.731479 -1.412308 -3.493055 74.092304 -24.748652 45.145046 -114.532301 60.503097 -82.940694 0.862681 -0.828415 -13.091191 -41.252105 39.572681 -30.195600 7.125000 0.000000 0.000000 -2.886900 18.816300 -3.667500 
0.713335 17.846894 7.550537 -1.709339 -5.286645 6.192438 -1.968846 4.307888 5.188832 -11.020992 -0.401210 -16.884397 18.323483 17.999254 86.563061 2.333025 -6.383310 33.379538 0.250900 3.223000 8.900300 4.294773 -2.165770 1.810005 23.015192 15.395797 -27.953732 -3.941508 -11.960298 40.551908 0.294778 -3.649152 8.729534 -0.329900 -3.691500 10.210400 1.019839 -1.057392 13.775286 2.752332 -0.633480 -1.318545 2.275332 -0.846549 -9.729396 -5.004179 -4.447251 -17.369309 5.300221 -4.940494 9.275893 0.016500 -2.142600 8.088800 -4.510707 1.601786 -0.886457 -85.857947 14.528342 42.689769 121.027273 -57.069730 -88.722100 -0.029256 -0.830793 -44.720597 18.689824 4.867433 1.904300 -7.125000 0.000000 0.000000 -6.183300 35.694400 1.420800 8.794195 -1.397258 -3.380576 74.209729 -22.814518 45.610864 -113.826935 60.569543 -82.402990 0.900938 -0.819767 -13.262874 -41.630011 39.374363 -30.446600 7.125000 0.000000 0.000000 -3.161200 18.773500 -4.015200 
0.704184 17.752372 8.020340 -3.106371 -5.789277 6.432424 -1.578692 4.231213 4.838938 -8.722783 0.224235 -19.778199 19.529566 18.437920 90.151063 2.169423 -6.921430 30.620447 0.003700 -0.395000 -1.085300 4.210882 -2.387765 2.030615 25.109992 16.950637 -26.113050 -4.414393 -12.046676 41.787447 0.937959 -4.968030 5.612931 -0.209000 -2.943300 8.121000 2.092357 -0.771862 13.915834 2.997532 -0.042496 -1.349764 2.104665 -0.558752 -9.903254 -4.987931 -4.394370 -17.146799 5.371130 -4.909078 9.024333 0.052500 -2.133900 7.942500 -4.482483 1.622766 -0.927833 -86.085147 15.928051 42.390077 120.617714 -57.217812 -88.404287 -0.026195 -0.828025 -44.278849 18.425552 4.890549 1.884800 -7.125000 0.000000 0.000000 -6.413100 35.709800 1.471700 8.858740 -1.390525 -3.277332 74.188572 -20.914446 46.256220 -113.360267 60.583999 -82.042462 0.904049 -0.815029 -13.299356 -41.042036 39.405613 -29.947000 7.125000 0.000000 0.000000 -2.870900 18.546000 -3.638600 
0.684115 17.671784 8.468826 -3.903299 -5.982356 6.609712 -1.202448 4.079105 4.478949 -6.965519 0.519173 -22.713434 20.629279 18.819559 93.345644 2.113732 -7.578963 29.172823 0.007200 -0.547300 -1.504000 4.139893 -2.570836 2.236755 26.489659 18.292524 -24.364488 -4.758516 -12.077360 42.626253 1.623914 -6.491599 3.158434 -0.121200 -2.244400 6.181500 2.448706 -0.560163 14.381785 3.175675 0.320519 -1.456380 2.223901 -0.363133 -10.386042 -5.061672 -4.347144 -17.052453 5.606300 -4.853170 8.850367 0.166000 -2.096300 7.867000 -4.468923 1.641756 -0.980439 -86.289801 17.663946 42.013633 120.822180 -57.176156 -88.538960 -0.009843 -0.836235 -43.931649 18.162228 5.725582 2.143700 -7.125000 0.000000 0.000000 -6.741300 36.589900 1.402200 8.912916 -1.362011 -3.177065 74.125050 -18.988381 47.070098 -113.077317 60.553880 -81.818825 0.892472 -0.798918 -13.154538 -39.885304 38.917305 -28.688900 7.125000 0.000000 0.000000 -2.475500 17.545600 -3.109000 
0.666438 17.601802 8.926359 -3.951293 -5.755831 6.509554 -0.911629 3.865851 4.124028 -6.093988 0.318731 -25.364761 21.592444 19.077001 96.048949 1.970168 -7.465209 27.665055 0.010400 0.659000 1.811000 4.108431 -2.707594 2.472877 27.008898 18.832805 -22.752396 -4.988674 -12.112678 43.255426 2.104182 -7.597685 1.159273 -0.079300 -1.816800 4.999700 2.238083 -0.431723 14.838865 3.194608 0.433896 -1.481713 2.342048 -0.270043 -10.676915 -5.091529 -4.346583 -16.774429 5.868740 -4.896273 8.274616 0.266100 -2.119600 7.588000 -4.466066 1.647463 -1.015341 -86.147535 19.065653 41.962047 120.879431 -57.182521 -88.560620 -0.000083 -0.842503 -43.724113 17.987310 6.242073 2.297800 -7.125000 0.000000 0.000000 -6.959500 37.132000 1.355300 8.939856 -1.354611 -3.069452 74.225828 -16.996939 47.774695 -113.096433 60.451209 -81.830892 0.876931 -0.803304 -13.063528 -38.987921 39.038410 -27.979500 7.125000 0.000000 0.000000 -1.988000 17.305100 -2.490600 
